<svg xmlns="http://www.w3.org/2000/svg" viewBox="0 0 64 64" role="img" aria-label="Black cat">
  <rect width="64" height="64" rx="12" fill="#020617" />
  <path d="M14 34c0-11 9-20 18-20s18 9 18 20v6c0 9-9 16-18 16S14 49 14 40z" fill="#0f172a" />
  <path d="M24 18 18 8l-8 6 5 14" fill="#0f172a" />
  <path d="M40 18 46 8l8 6-5 14" fill="#0f172a" />
  <ellipse cx="24" cy="34" rx="6" ry="7" fill="#0b1120" />
  <ellipse cx="40" cy="34" rx="6" ry="7" fill="#0b1120" />
  <circle cx="26" cy="33" r="2" fill="#f8fafc" />
  <circle cx="38" cy="33" r="2" fill="#f8fafc" />
  <path d="M32 36c2 0 4 2 4 4s-2 4-4 4-4-2-4-4 2-4 4-4z" fill="#fbbf24" />
  <path d="M24 46c2.5 2 5.5 3 8 3s5.5-1 8-3" stroke="#f8fafc" stroke-width="2" stroke-linecap="round" fill="none" />
  <path d="M20 38c-2.5 1.4-5.2 2.1-8 2.1" stroke="#f8fafc" stroke-width="2" stroke-linecap="round" fill="none" />
  <path d="M44 38c2.5 1.4 5.2 2.1 8 2.1" stroke="#f8fafc" stroke-width="2" stroke-linecap="round" fill="none" />
</svg>
